<svg width="67" height="67" viewBox="0 0 67 67" fill="none" xmlns="http://www.w3.org/2000/svg">
<path fill-rule="evenodd" clip-rule="evenodd" d="M61.6 66.38C60.91 66.4653 60.2096 66.3951 59.5503 66.1742C58.8909 65.9534 58.2895 65.5877 57.79 65.104L44.458 51.7C39.7197 54.7191 34.1964 56.2739 28.579 56.17C13.339 56.17 0.637021 44.038 0.637021 28.715C0.516113 24.2908 1.44742 19.9012 3.35431 15.9072C5.26119 11.9133 8.08915 8.42914 11.6055 5.74156C15.1219 3.05398 19.2261 1.23975 23.5806 0.448121C27.935 -0.343508 32.4152 -0.0899043 36.6525 1.18808C40.8898 2.46607 44.7631 4.7319 47.9537 7.79915C51.1443 10.8664 53.561 14.6474 55.0049 18.831C56.4489 23.0146 56.8789 27.4814 56.2595 31.8636C55.6401 36.2459 53.989 40.4184 51.442 44.038L64.78 58.08C65.3642 58.3805 65.8523 58.8389 66.189 59.4029C66.5258 59.967 66.6976 60.6142 66.685 61.271C66.6966 61.9428 66.5732 62.6101 66.3223 63.2334C66.0713 63.8567 65.6978 64.4233 65.224 64.8997C64.7501 65.3761 64.1855 65.7526 63.5635 66.0068C62.9416 66.2611 62.2749 66.388 61.603 66.38H61.6ZM28.576 10.834C26.2193 10.7836 23.8768 11.2123 21.6907 12.0941C19.5045 12.976 17.5202 14.2926 15.8581 15.9642C14.196 17.6358 12.8906 19.6275 12.0211 21.8186C11.1517 24.0097 10.7363 26.3545 10.8 28.711C10.8 38.289 18.42 45.949 28.581 45.949C38.109 45.949 46.365 38.289 46.365 28.711C46.3752 26.3683 45.9228 24.0467 45.0338 21.8793C44.1448 19.7118 42.8367 17.7412 41.1845 16.0803C39.5323 14.4195 37.5685 13.1011 35.4057 12.2009C33.2429 11.3006 30.9237 10.8361 28.581 10.834H28.576Z" fill="white"/>
</svg>
